<mxfile host="Electron" agent="Mozilla/5.0 (Windows NT 10.0; Win64; x64) AppleWebKit/537.36 (KHTML, like Gecko) draw.io/27.0.9 Chrome/134.0.6998.205 Electron/35.4.0 Safari/537.36" version="27.0.9">
  <diagram name="Page-1" id="smRdYCc8Z4hJ3pXk_26R">
    <mxGraphModel dx="2437" dy="1687" grid="1" gridSize="10" guides="1" tooltips="1" connect="1" arrows="1" fold="1" page="0" pageScale="1" pageWidth="850" pageHeight="1100" math="0" shadow="0">
      <root>
        <mxCell id="0" />
        <mxCell id="1" parent="0" />
        <mxCell id="aG3DPPv0IIERqoOhLIeB-1" value="" style="rounded=0;whiteSpace=wrap;html=1;fillColor=none;dashed=1;strokeWidth=2;" vertex="1" parent="1">
          <mxGeometry x="-320" y="-80" width="1450" height="720" as="geometry" />
        </mxCell>
        <mxCell id="fv1WN9KDxiz53P-41Ber-55" value="" style="rounded=1;whiteSpace=wrap;html=1;fillColor=none;dashed=1;strokeColor=#FFB570;strokeWidth=2;" parent="1" vertex="1">
          <mxGeometry x="490" y="10" width="540" height="580" as="geometry" />
        </mxCell>
        <mxCell id="fv1WN9KDxiz53P-41Ber-46" value="&lt;font color=&quot;#000000&quot;&gt;&lt;span style=&quot;font-size: 22px;&quot;&gt;&lt;b&gt;erp_px_cat_g1v2&lt;/b&gt;&lt;/span&gt;&lt;/font&gt;" style="swimlane;fontStyle=0;childLayout=stackLayout;horizontal=1;startSize=26;fillColor=#ffe6cc;horizontalStack=0;resizeParent=1;resizeParentMax=0;resizeLast=0;collapsible=1;marginBottom=0;html=1;strokeColor=#d79b00;" parent="1" vertex="1">
          <mxGeometry x="660" y="150" width="200" height="80" as="geometry" />
        </mxCell>
        <mxCell id="fv1WN9KDxiz53P-41Ber-47" value="&lt;font style=&quot;font-size: 20px;&quot;&gt;id&lt;/font&gt;" style="text;strokeColor=none;fillColor=none;align=left;verticalAlign=top;spacingLeft=4;spacingRight=4;overflow=hidden;rotatable=0;points=[[0,0.5],[1,0.5]];portConstraint=eastwest;whiteSpace=wrap;html=1;" parent="fv1WN9KDxiz53P-41Ber-46" vertex="1">
          <mxGeometry y="26" width="200" height="54" as="geometry" />
        </mxCell>
        <mxCell id="fv1WN9KDxiz53P-41Ber-53" value="" style="rounded=1;whiteSpace=wrap;html=1;fillColor=none;strokeColor=#6c8ebf;dashed=1;strokeWidth=2;" parent="1" vertex="1">
          <mxGeometry x="-240" y="10" width="700" height="580" as="geometry" />
        </mxCell>
        <mxCell id="fv1WN9KDxiz53P-41Ber-16" value="&lt;b&gt;&lt;font style=&quot;color: rgb(0, 0, 0); font-size: 22px;&quot;&gt;crm_cust_info&lt;/font&gt;&lt;/b&gt;" style="swimlane;fontStyle=0;childLayout=stackLayout;horizontal=1;startSize=26;fillColor=#dae8fc;horizontalStack=0;resizeParent=1;resizeParentMax=0;resizeLast=0;collapsible=1;marginBottom=0;html=1;strokeColor=#6c8ebf;" parent="1" vertex="1">
          <mxGeometry x="160" y="390" width="200" height="134" as="geometry" />
        </mxCell>
        <mxCell id="fv1WN9KDxiz53P-41Ber-17" value="&lt;font style=&quot;font-size: 20px;&quot;&gt;cst_id&lt;/font&gt;" style="text;strokeColor=none;fillColor=none;align=left;verticalAlign=top;spacingLeft=4;spacingRight=4;overflow=hidden;rotatable=0;points=[[0,0.5],[1,0.5]];portConstraint=eastwest;whiteSpace=wrap;html=1;" parent="fv1WN9KDxiz53P-41Ber-16" vertex="1">
          <mxGeometry y="26" width="200" height="54" as="geometry" />
        </mxCell>
        <mxCell id="fv1WN9KDxiz53P-41Ber-32" value="&lt;font style=&quot;font-size: 20px;&quot;&gt;cst_key&lt;/font&gt;" style="text;strokeColor=none;fillColor=none;align=left;verticalAlign=top;spacingLeft=4;spacingRight=4;overflow=hidden;rotatable=0;points=[[0,0.5],[1,0.5]];portConstraint=eastwest;whiteSpace=wrap;html=1;" parent="fv1WN9KDxiz53P-41Ber-16" vertex="1">
          <mxGeometry y="80" width="200" height="54" as="geometry" />
        </mxCell>
        <mxCell id="fv1WN9KDxiz53P-41Ber-20" value="&lt;b&gt;&lt;font style=&quot;color: rgb(0, 0, 0); font-size: 22px;&quot;&gt;crm_prd_info&lt;/font&gt;&lt;/b&gt;" style="swimlane;fontStyle=0;childLayout=stackLayout;horizontal=1;startSize=26;fillColor=#dae8fc;horizontalStack=0;resizeParent=1;resizeParentMax=0;resizeLast=0;collapsible=1;marginBottom=0;html=1;strokeColor=#6c8ebf;" parent="1" vertex="1">
          <mxGeometry x="160" y="160" width="200" height="134" as="geometry" />
        </mxCell>
        <mxCell id="fv1WN9KDxiz53P-41Ber-21" value="&lt;font style=&quot;font-size: 20px;&quot;&gt;prd_key&lt;/font&gt;" style="text;strokeColor=none;fillColor=none;align=left;verticalAlign=top;spacingLeft=4;spacingRight=4;overflow=hidden;rotatable=0;points=[[0,0.5],[1,0.5]];portConstraint=eastwest;whiteSpace=wrap;html=1;" parent="fv1WN9KDxiz53P-41Ber-20" vertex="1">
          <mxGeometry y="26" width="200" height="54" as="geometry" />
        </mxCell>
        <mxCell id="kB0hrXeKhvXMTsMtcmrx-8" value="&lt;font style=&quot;font-size: 20px;&quot;&gt;cat_id&lt;/font&gt;" style="text;strokeColor=none;fillColor=none;align=left;verticalAlign=top;spacingLeft=4;spacingRight=4;overflow=hidden;rotatable=0;points=[[0,0.5],[1,0.5]];portConstraint=eastwest;whiteSpace=wrap;html=1;" parent="fv1WN9KDxiz53P-41Ber-20" vertex="1">
          <mxGeometry y="80" width="200" height="54" as="geometry" />
        </mxCell>
        <mxCell id="fv1WN9KDxiz53P-41Ber-22" value="&lt;b&gt;&lt;font style=&quot;color: rgb(0, 0, 0); font-size: 22px;&quot;&gt;crm_sales_details&lt;/font&gt;&lt;/b&gt;" style="swimlane;fontStyle=0;childLayout=stackLayout;horizontal=1;startSize=26;fillColor=#dae8fc;horizontalStack=0;resizeParent=1;resizeParentMax=0;resizeLast=0;collapsible=1;marginBottom=0;html=1;strokeColor=#6c8ebf;" parent="1" vertex="1">
          <mxGeometry x="-200" y="280" width="200" height="134" as="geometry" />
        </mxCell>
        <mxCell id="fv1WN9KDxiz53P-41Ber-23" value="&lt;font style=&quot;font-size: 20px;&quot;&gt;prd_key&lt;/font&gt;" style="text;strokeColor=none;fillColor=none;align=left;verticalAlign=top;spacingLeft=4;spacingRight=4;overflow=hidden;rotatable=0;points=[[0,0.5],[1,0.5]];portConstraint=eastwest;whiteSpace=wrap;html=1;" parent="fv1WN9KDxiz53P-41Ber-22" vertex="1">
          <mxGeometry y="26" width="200" height="54" as="geometry" />
        </mxCell>
        <mxCell id="fv1WN9KDxiz53P-41Ber-24" value="&lt;font style=&quot;font-size: 20px;&quot;&gt;cst_id&lt;/font&gt;" style="text;strokeColor=none;fillColor=none;align=left;verticalAlign=top;spacingLeft=4;spacingRight=4;overflow=hidden;rotatable=0;points=[[0,0.5],[1,0.5]];portConstraint=eastwest;whiteSpace=wrap;html=1;" parent="fv1WN9KDxiz53P-41Ber-22" vertex="1">
          <mxGeometry y="80" width="200" height="54" as="geometry" />
        </mxCell>
        <mxCell id="fv1WN9KDxiz53P-41Ber-26" style="edgeStyle=orthogonalEdgeStyle;rounded=0;orthogonalLoop=1;jettySize=auto;html=1;entryX=0;entryY=0.5;entryDx=0;entryDy=0;" parent="1" source="fv1WN9KDxiz53P-41Ber-24" target="fv1WN9KDxiz53P-41Ber-17" edge="1">
          <mxGeometry relative="1" as="geometry" />
        </mxCell>
        <mxCell id="fv1WN9KDxiz53P-41Ber-28" style="edgeStyle=orthogonalEdgeStyle;rounded=0;orthogonalLoop=1;jettySize=auto;html=1;entryX=0;entryY=0.5;entryDx=0;entryDy=0;" parent="1" source="fv1WN9KDxiz53P-41Ber-23" target="fv1WN9KDxiz53P-41Ber-21" edge="1">
          <mxGeometry relative="1" as="geometry" />
        </mxCell>
        <mxCell id="fv1WN9KDxiz53P-41Ber-29" value="&lt;font style=&quot;font-size: 50px;&quot;&gt;&lt;b style=&quot;&quot;&gt;Integration Model&lt;/b&gt;&lt;/font&gt;" style="text;html=1;align=center;verticalAlign=middle;resizable=0;points=[];autosize=1;strokeColor=none;fillColor=default;" parent="1" vertex="1">
          <mxGeometry x="185" y="-120" width="440" height="70" as="geometry" />
        </mxCell>
        <mxCell id="fv1WN9KDxiz53P-41Ber-30" value="&lt;font color=&quot;#000000&quot;&gt;&lt;span style=&quot;font-size: 22px;&quot;&gt;&lt;b&gt;erp_cust_az12&lt;/b&gt;&lt;/span&gt;&lt;/font&gt;" style="swimlane;fontStyle=0;childLayout=stackLayout;horizontal=1;startSize=26;fillColor=#ffe6cc;horizontalStack=0;resizeParent=1;resizeParentMax=0;resizeLast=0;collapsible=1;marginBottom=0;html=1;strokeColor=#d79b00;" parent="1" vertex="1">
          <mxGeometry x="670" y="300" width="200" height="80" as="geometry" />
        </mxCell>
        <mxCell id="fv1WN9KDxiz53P-41Ber-31" value="&lt;font style=&quot;font-size: 20px;&quot;&gt;cid&lt;/font&gt;" style="text;strokeColor=none;fillColor=none;align=left;verticalAlign=top;spacingLeft=4;spacingRight=4;overflow=hidden;rotatable=0;points=[[0,0.5],[1,0.5]];portConstraint=eastwest;whiteSpace=wrap;html=1;" parent="fv1WN9KDxiz53P-41Ber-30" vertex="1">
          <mxGeometry y="26" width="200" height="54" as="geometry" />
        </mxCell>
        <mxCell id="fv1WN9KDxiz53P-41Ber-34" value="&lt;font style=&quot;font-size: 20px;&quot;&gt;Customer Information&lt;/font&gt;" style="text;html=1;align=center;verticalAlign=middle;resizable=0;points=[];autosize=1;strokeColor=none;fillColor=none;" parent="1" vertex="1">
          <mxGeometry x="150" y="344" width="220" height="40" as="geometry" />
        </mxCell>
        <mxCell id="fv1WN9KDxiz53P-41Ber-35" value="&lt;font style=&quot;font-size: 20px;&quot;&gt;Current &amp;amp; History Product Information&lt;/font&gt;" style="text;html=1;align=center;verticalAlign=middle;resizable=0;points=[];autosize=1;strokeColor=none;fillColor=none;" parent="1" vertex="1">
          <mxGeometry x="80" y="113" width="360" height="40" as="geometry" />
        </mxCell>
        <mxCell id="fv1WN9KDxiz53P-41Ber-36" value="&lt;font style=&quot;font-size: 20px;&quot;&gt;Transanctional Records about&amp;nbsp;&lt;/font&gt;&lt;div&gt;&lt;font style=&quot;font-size: 20px;&quot;&gt;Sales &amp;amp; Orders&lt;/font&gt;&lt;/div&gt;" style="text;html=1;align=center;verticalAlign=middle;resizable=0;points=[];autosize=1;strokeColor=none;fillColor=none;" parent="1" vertex="1">
          <mxGeometry x="-250" y="213" width="300" height="60" as="geometry" />
        </mxCell>
        <mxCell id="fv1WN9KDxiz53P-41Ber-37" value="&lt;font style=&quot;font-size: 20px;&quot;&gt;Extra Customer Information (Birthdate)&lt;/font&gt;" style="text;html=1;align=center;verticalAlign=middle;resizable=0;points=[];autosize=1;strokeColor=none;fillColor=none;" parent="1" vertex="1">
          <mxGeometry x="585" y="260" width="370" height="40" as="geometry" />
        </mxCell>
        <mxCell id="fv1WN9KDxiz53P-41Ber-39" style="edgeStyle=orthogonalEdgeStyle;rounded=0;orthogonalLoop=1;jettySize=auto;html=1;entryX=1;entryY=0.5;entryDx=0;entryDy=0;" parent="1" source="fv1WN9KDxiz53P-41Ber-31" target="fv1WN9KDxiz53P-41Ber-32" edge="1">
          <mxGeometry relative="1" as="geometry" />
        </mxCell>
        <mxCell id="fv1WN9KDxiz53P-41Ber-40" value="&lt;font color=&quot;#000000&quot;&gt;&lt;span style=&quot;font-size: 22px;&quot;&gt;&lt;b&gt;erp_loc_a101&lt;/b&gt;&lt;/span&gt;&lt;/font&gt;" style="swimlane;fontStyle=0;childLayout=stackLayout;horizontal=1;startSize=26;fillColor=#ffe6cc;horizontalStack=0;resizeParent=1;resizeParentMax=0;resizeLast=0;collapsible=1;marginBottom=0;html=1;strokeColor=#d79b00;" parent="1" vertex="1">
          <mxGeometry x="670" y="470" width="200" height="80" as="geometry" />
        </mxCell>
        <mxCell id="fv1WN9KDxiz53P-41Ber-41" value="&lt;font style=&quot;font-size: 20px;&quot;&gt;cid&lt;/font&gt;" style="text;strokeColor=none;fillColor=none;align=left;verticalAlign=top;spacingLeft=4;spacingRight=4;overflow=hidden;rotatable=0;points=[[0,0.5],[1,0.5]];portConstraint=eastwest;whiteSpace=wrap;html=1;" parent="fv1WN9KDxiz53P-41Ber-40" vertex="1">
          <mxGeometry y="26" width="200" height="54" as="geometry" />
        </mxCell>
        <mxCell id="fv1WN9KDxiz53P-41Ber-44" style="edgeStyle=orthogonalEdgeStyle;rounded=0;orthogonalLoop=1;jettySize=auto;html=1;entryX=1;entryY=0.5;entryDx=0;entryDy=0;" parent="1" source="fv1WN9KDxiz53P-41Ber-41" target="fv1WN9KDxiz53P-41Ber-32" edge="1">
          <mxGeometry relative="1" as="geometry" />
        </mxCell>
        <mxCell id="fv1WN9KDxiz53P-41Ber-45" value="&lt;font style=&quot;font-size: 20px;&quot;&gt;Location of Customers (Country)&lt;/font&gt;" style="text;html=1;align=center;verticalAlign=middle;resizable=0;points=[];autosize=1;strokeColor=none;fillColor=none;" parent="1" vertex="1">
          <mxGeometry x="615" y="420" width="310" height="40" as="geometry" />
        </mxCell>
        <mxCell id="fv1WN9KDxiz53P-41Ber-48" value="&lt;font style=&quot;font-size: 20px;&quot;&gt;Product Category&lt;/font&gt;" style="text;html=1;align=center;verticalAlign=middle;resizable=0;points=[];autosize=1;strokeColor=none;fillColor=none;" parent="1" vertex="1">
          <mxGeometry x="670" y="110" width="180" height="40" as="geometry" />
        </mxCell>
        <mxCell id="fv1WN9KDxiz53P-41Ber-54" value="&lt;font style=&quot;font-size: 40px; color: rgb(0, 0, 0);&quot;&gt;&lt;b&gt;CRM&lt;/b&gt;&lt;/font&gt;" style="text;html=1;align=center;verticalAlign=middle;resizable=0;points=[];autosize=1;strokeColor=#6c8ebf;fillColor=#dae8fc;" parent="1" vertex="1">
          <mxGeometry x="55" y="-20" width="110" height="60" as="geometry" />
        </mxCell>
        <mxCell id="fv1WN9KDxiz53P-41Ber-56" value="&lt;font style=&quot;font-size: 40px; color: rgb(0, 0, 0);&quot;&gt;&lt;b&gt;ERP&lt;/b&gt;&lt;/font&gt;" style="text;html=1;align=center;verticalAlign=middle;resizable=0;points=[];autosize=1;strokeColor=#d79b00;fillColor=#ffe6cc;" parent="1" vertex="1">
          <mxGeometry x="715" y="-20" width="110" height="60" as="geometry" />
        </mxCell>
        <mxCell id="kB0hrXeKhvXMTsMtcmrx-1" value="&lt;b&gt;&lt;font style=&quot;font-size: 20px; color: rgb(0, 0, 0);&quot;&gt;Product&lt;/font&gt;&lt;/b&gt;" style="text;html=1;strokeColor=#9673a6;fillColor=#e1d5e7;align=center;verticalAlign=middle;whiteSpace=wrap;overflow=hidden;" parent="1" vertex="1">
          <mxGeometry x="160" y="294" width="200" height="30" as="geometry" />
        </mxCell>
        <mxCell id="kB0hrXeKhvXMTsMtcmrx-2" value="&lt;b&gt;&lt;font style=&quot;font-size: 20px; color: rgb(0, 0, 0);&quot;&gt;Product&lt;/font&gt;&lt;/b&gt;" style="text;html=1;strokeColor=#9673a6;fillColor=#e1d5e7;align=center;verticalAlign=middle;whiteSpace=wrap;overflow=hidden;" parent="1" vertex="1">
          <mxGeometry x="660" y="228" width="200" height="30" as="geometry" />
        </mxCell>
        <mxCell id="kB0hrXeKhvXMTsMtcmrx-3" value="&lt;b&gt;&lt;font style=&quot;font-size: 20px; color: rgb(0, 0, 0);&quot;&gt;Customer&lt;/font&gt;&lt;/b&gt;" style="text;html=1;strokeColor=#82b366;fillColor=#d5e8d4;align=center;verticalAlign=middle;whiteSpace=wrap;overflow=hidden;" parent="1" vertex="1">
          <mxGeometry x="160" y="524" width="200" height="30" as="geometry" />
        </mxCell>
        <mxCell id="kB0hrXeKhvXMTsMtcmrx-4" value="&lt;b&gt;&lt;font style=&quot;font-size: 20px; color: rgb(0, 0, 0);&quot;&gt;Customer&lt;/font&gt;&lt;/b&gt;" style="text;html=1;strokeColor=#82b366;fillColor=#d5e8d4;align=center;verticalAlign=middle;whiteSpace=wrap;overflow=hidden;" parent="1" vertex="1">
          <mxGeometry x="670" y="380" width="200" height="30" as="geometry" />
        </mxCell>
        <mxCell id="kB0hrXeKhvXMTsMtcmrx-5" value="&lt;b&gt;&lt;font style=&quot;font-size: 20px; color: rgb(0, 0, 0);&quot;&gt;Customer&lt;/font&gt;&lt;/b&gt;" style="text;html=1;strokeColor=#82b366;fillColor=#d5e8d4;align=center;verticalAlign=middle;whiteSpace=wrap;overflow=hidden;" parent="1" vertex="1">
          <mxGeometry x="670" y="550" width="200" height="30" as="geometry" />
        </mxCell>
        <mxCell id="kB0hrXeKhvXMTsMtcmrx-6" value="&lt;b&gt;&lt;font style=&quot;font-size: 20px; color: rgb(0, 0, 0);&quot;&gt;Sales&lt;/font&gt;&lt;/b&gt;" style="text;html=1;strokeColor=#d6b656;fillColor=#fff2cc;align=center;verticalAlign=middle;whiteSpace=wrap;overflow=hidden;" parent="1" vertex="1">
          <mxGeometry x="-200" y="414" width="200" height="30" as="geometry" />
        </mxCell>
        <mxCell id="kB0hrXeKhvXMTsMtcmrx-9" style="edgeStyle=orthogonalEdgeStyle;rounded=0;orthogonalLoop=1;jettySize=auto;html=1;" parent="1" source="fv1WN9KDxiz53P-41Ber-47" target="kB0hrXeKhvXMTsMtcmrx-8" edge="1">
          <mxGeometry relative="1" as="geometry" />
        </mxCell>
        <mxCell id="aG3DPPv0IIERqoOhLIeB-2" value="&lt;font style=&quot;font-size: 20px;&quot;&gt;Customer Relationship management&lt;/font&gt;" style="text;html=1;align=center;verticalAlign=middle;resizable=0;points=[];autosize=1;strokeColor=none;fillColor=none;fontSize=16;" vertex="1" parent="1">
          <mxGeometry x="-65" y="40" width="350" height="40" as="geometry" />
        </mxCell>
        <mxCell id="aG3DPPv0IIERqoOhLIeB-3" value="&lt;font style=&quot;font-size: 20px;&quot;&gt;Enterprise Resource Plannong&lt;/font&gt;" style="text;html=1;align=center;verticalAlign=middle;resizable=0;points=[];autosize=1;strokeColor=none;fillColor=none;fontSize=16;" vertex="1" parent="1">
          <mxGeometry x="640" y="40" width="300" height="40" as="geometry" />
        </mxCell>
      </root>
    </mxGraphModel>
  </diagram>
</mxfile>
